
      <svg data-logo="logo" xmlns="http://www.w3.org/2000/svg" viewBox="0 0 52 41">
        <g id="logogram" transform="
    translate(0, 0)
    rotate(0 25.5 20.5)
    
  "><path d="M25.5273 0.900024L50.5272 15.9098V25.8863L25.5273 40.9L0.527222 25.8863V15.9099L25.5273 0.900024Z" fill="#F3F6F8"/><path fill-rule="evenodd" clip-rule="evenodd" d="M0.527222 15.9098L25.5272 0.900024L50.5272 15.9098V25.8863L25.5272 40.9L0.527222 25.8863V15.9098ZM25.5272 34.531L45.2239 22.7022V19.0951L45.2229 19.0945L25.5272 30.9197L5.83148 19.0945L5.83052 19.0951V22.7022L25.5272 34.531ZM25.5272 25.4046L40.629 16.3376L36.9501 14.1298L25.5272 20.9881L14.1043 14.1298L10.4254 16.3376L25.5272 25.4046ZM25.5272 15.473L32.3562 11.3729L25.5272 7.27469L18.6982 11.3729L25.5272 15.473Z" fill="#393F5B"/><path d="M25.5273 0.900024L0.527222 15.9099V25.8863L25.5272 40.9L25.5273 0.900024Z" fill="#606785" fill-opacity="0.3"/></g>
        <g id="logotype" transform=""></g>
        
      </svg>
    